<svg width="18" height="20" viewBox="0 0 18 20" fill="none" xmlns="http://www.w3.org/2000/svg">
<g clip-path="url(#clip0_8141_4592)">
<path d="M9 4.375C9.39782 4.375 9.77936 4.21696 10.0607 3.93566C10.342 3.65436 10.5 3.27282 10.5 2.875C10.5 2.47718 10.342 2.09564 10.0607 1.81434C9.77936 1.53304 9.39782 1.375 9 1.375C8.60218 1.375 8.22064 1.53304 7.93934 1.81434C7.65804 2.09564 7.5 2.47718 7.5 2.875C7.5 3.27282 7.65804 3.65436 7.93934 3.93566C8.22064 4.21696 8.60218 4.375 9 4.375ZM9 4.375V18.625M5.25 12.25C3.75 12.25 2.625 11.5 1.5 10H1.125C1.125 13.51 3.42 16.4823 6.5925 17.5C7.5 17.8 8.25 17.875 8.90625 18.625H9.09375C9.75 17.875 10.5 17.8 11.4083 17.5C14.5793 16.4823 16.875 13.51 16.875 10H16.5C15.375 11.5 14.25 12.25 12.75 12.25M5.25 6.625C5.25 6.625 7.125 7.375 9 7.375C10.875 7.375 12.75 6.625 12.75 6.625" stroke="#777E90" stroke-width="1.5"/>
</g>
<defs>
<clipPath id="clip0_8141_4592">
<rect width="18" height="20" fill="white"/>
</clipPath>
</defs>
</svg>
