<svg width="20" height="20" viewBox="0 0 20 20" fill="none" xmlns="http://www.w3.org/2000/svg">
<path d="M15 15.7167H14.3667C13.7 15.7167 13.0667 15.975 12.6 16.4417L11.175 17.85C10.525 18.4917 9.46668 18.4917 8.81668 17.85L7.39166 16.4417C6.925 15.975 6.28333 15.7167 5.625 15.7167H5C3.61667 15.7167 2.5 14.6084 2.5 13.2417V4.14169C2.5 2.77502 3.61667 1.66669 5 1.66669H15C16.3833 1.66669 17.5 2.77502 17.5 4.14169V13.2334C17.5 14.6 16.3833 15.7167 15 15.7167Z" stroke="#777E90" stroke-width="1.5" stroke-miterlimit="10" stroke-linecap="round" stroke-linejoin="round"/>
<path d="M10.0584 7.45831C10.0251 7.45831 9.97504 7.45831 9.93337 7.45831C9.05837 7.42498 8.3667 6.71665 8.3667 5.83331C8.3667 4.93331 9.09171 4.20831 9.99171 4.20831C10.8917 4.20831 11.6167 4.94165 11.6167 5.83331C11.6251 6.71665 10.9334 7.43331 10.0584 7.45831Z" stroke="#777E90" stroke-width="1.5" stroke-linecap="round" stroke-linejoin="round"/>
<path d="M7.70845 9.96667C6.60011 10.7083 6.60011 11.9167 7.70845 12.6583C8.96678 13.5 11.0334 13.5 12.2918 12.6583C13.4001 11.9167 13.4001 10.7083 12.2918 9.96667C11.0334 9.13334 8.97511 9.13334 7.70845 9.96667Z" stroke="#777E90" stroke-width="1.5" stroke-linecap="round" stroke-linejoin="round"/>
</svg>
