<svg width="20" height="20" viewBox="0 0 20 20" fill="none" xmlns="http://www.w3.org/2000/svg">
<path d="M15.1166 18.0166C14.3833 18.2333 13.5166 18.3333 12.5 18.3333H7.49997C6.4833 18.3333 5.61663 18.2333 4.8833 18.0166C5.06663 15.85 7.29163 14.1416 9.99997 14.1416C12.7083 14.1416 14.9333 15.85 15.1166 18.0166Z" stroke="#777E90" stroke-width="1.5" stroke-linecap="round" stroke-linejoin="round"/>
<path d="M12.5001 1.66663H7.50008C3.33341 1.66663 1.66675 3.33329 1.66675 7.49996V12.5C1.66675 15.65 2.61675 17.375 4.88342 18.0166C5.06675 15.85 7.29175 14.1416 10.0001 14.1416C12.7084 14.1416 14.9334 15.85 15.1167 18.0166C17.3834 17.375 18.3334 15.65 18.3334 12.5V7.49996C18.3334 3.33329 16.6667 1.66663 12.5001 1.66663ZM10.0001 11.8083C8.35008 11.8083 7.01675 10.4666 7.01675 8.81664C7.01675 7.16664 8.35008 5.83329 10.0001 5.83329C11.6501 5.83329 12.9834 7.16664 12.9834 8.81664C12.9834 10.4666 11.6501 11.8083 10.0001 11.8083Z" stroke="#777E90" stroke-width="1.5" stroke-linecap="round" stroke-linejoin="round"/>
<path d="M12.9833 8.81672C12.9833 10.4667 11.6499 11.8084 9.99994 11.8084C8.34994 11.8084 7.0166 10.4667 7.0166 8.81672C7.0166 7.16672 8.34994 5.83337 9.99994 5.83337C11.6499 5.83337 12.9833 7.16672 12.9833 8.81672Z" stroke="#777E90" stroke-width="1.5" stroke-linecap="round" stroke-linejoin="round"/>
</svg>
