<svg width="30" height="30" viewBox="0 0 30 30" fill="none" xmlns="http://www.w3.org/2000/svg">
<path id="Subtract" fill-rule="evenodd" clip-rule="evenodd" d="M27.1753 23.7633C28.9528 21.2981 30 18.2713 30 15C30 6.71573 23.2843 0 15 0C6.71573 0 0 6.71573 0 15C0 16.9852 0.385646 18.8803 1.08611 20.6145C2.645 19.4343 5.10473 18.7159 7.74704 18.4794V12.321L5.25 13.9744V11.4191L12.5689 6.45877V9.08926L10.0719 10.6675V18.3957C11.2446 18.4151 12.4125 18.5272 13.5159 18.7339V6.08301C14.3195 5.65712 15.9268 4.79032 15.9268 4.73019V9.2396H17.9933V3.52768L20.2321 2.25002V20.5411C23.511 21.6434 25.674 22.7708 27.1753 23.7633ZM26.7949 24.2681C26.0118 23.9235 25.1648 23.6079 24.2398 23.3125C17.6944 21.2225 10.5982 20.327 3.87969 21.7666C3.18809 21.9147 2.52372 22.0957 1.90235 22.3166C4.46881 26.9011 9.37251 30 15 30C19.786 30 24.0485 27.7586 26.7949 24.2681ZM17.9933 19.8454C17.334 19.6558 16.6376 19.4681 15.9018 19.283L15.7546 11.6446H17.9933V19.8454Z" fill="#066BB1"/>
</svg>
