<svg width="20" height="20" viewBox="0 0 20 20" fill="none" xmlns="http://www.w3.org/2000/svg">
<path d="M12.4998 1.66663V9.99996C12.4998 10.9166 11.7498 11.6666 10.8332 11.6666H1.6665V6.34996C2.27484 7.07496 3.20819 7.52496 4.24153 7.49996C5.08319 7.48329 5.84151 7.15829 6.40817 6.61663C6.66651 6.39996 6.88319 6.12495 7.04986 5.82495C7.34986 5.31662 7.5165 4.7166 7.49984 4.0916C7.47484 3.1166 7.04152 2.25829 6.36652 1.66663H12.4998Z" stroke="#777E90" stroke-width="1.5" stroke-linecap="round" stroke-linejoin="round"/>
<path d="M18.3332 11.6666V14.1666C18.3332 15.55 17.2165 16.6666 15.8332 16.6666H14.9998C14.9998 15.75 14.2498 15 13.3332 15C12.4165 15 11.6665 15.75 11.6665 16.6666H8.33317C8.33317 15.75 7.58317 15 6.6665 15C5.74984 15 4.99984 15.75 4.99984 16.6666H4.1665C2.78317 16.6666 1.6665 15.55 1.6665 14.1666V11.6666H10.8332C11.7498 11.6666 12.4998 10.9166 12.4998 9.99996V4.16663H14.0332C14.6332 4.16663 15.1832 4.49163 15.4832 5.0083L16.9082 7.49996H15.8332C15.3748 7.49996 14.9998 7.87496 14.9998 8.33329V10.8333C14.9998 11.2916 15.3748 11.6666 15.8332 11.6666H18.3332Z" stroke="#777E90" stroke-width="1.5" stroke-linecap="round" stroke-linejoin="round"/>
<path d="M6.66667 18.3333C7.58714 18.3333 8.33333 17.5871 8.33333 16.6667C8.33333 15.7462 7.58714 15 6.66667 15C5.74619 15 5 15.7462 5 16.6667C5 17.5871 5.74619 18.3333 6.66667 18.3333Z" stroke="#777E90" stroke-width="1.5" stroke-linecap="round" stroke-linejoin="round"/>
<path d="M13.3332 18.3333C14.2536 18.3333 14.9998 17.5871 14.9998 16.6667C14.9998 15.7462 14.2536 15 13.3332 15C12.4127 15 11.6665 15.7462 11.6665 16.6667C11.6665 17.5871 12.4127 18.3333 13.3332 18.3333Z" stroke="#777E90" stroke-width="1.5" stroke-linecap="round" stroke-linejoin="round"/>
<path d="M18.3333 10V11.6667H15.8333C15.375 11.6667 15 11.2917 15 10.8333V8.33333C15 7.875 15.375 7.5 15.8333 7.5H16.9083L18.3333 10Z" stroke="#777E90" stroke-width="1.5" stroke-linecap="round" stroke-linejoin="round"/>
<path d="M7.50014 4.0917C7.51681 4.7167 7.35016 5.31672 7.05016 5.82505C6.88349 6.12505 6.66681 6.40006 6.40848 6.61673C5.84181 7.15839 5.0835 7.48339 4.24183 7.50006C3.2085 7.52506 2.27514 7.07505 1.66681 6.35005C1.55014 6.22505 1.45015 6.08339 1.35848 5.94173C1.03348 5.45006 0.850143 4.86675 0.833476 4.24175C0.808476 3.19175 1.27514 2.23338 2.02514 1.60838C2.5918 1.14172 3.30845 0.850057 4.09179 0.833391C4.96679 0.816724 5.76682 1.13339 6.36682 1.66672C7.04182 2.25839 7.47514 3.1167 7.50014 4.0917Z" stroke="#777E90" stroke-width="1.5" stroke-miterlimit="10" stroke-linecap="round" stroke-linejoin="round"/>
<path d="M2.8667 4.19173L3.70837 4.9917L5.45001 3.30835" stroke="#777E90" stroke-width="1.5" stroke-linecap="round" stroke-linejoin="round"/>
</svg>
